<?xml version="1.0" encoding="UTF-8" standalone="no"?>
<!DOCTYPE svg PUBLIC "-//W3C//DTD SVG 1.1//EN"
 "http://www.w3.org/Graphics/SVG/1.1/DTD/svg11.dtd">
<!-- Generated by graphviz version 2.40.1 (20161225.0304)
 -->
<!-- Title: git Pages: 1 -->
<svg width="1563pt" height="48pt"
 viewBox="0.00 0.00 1563.20 47.80" xmlns="http://www.w3.org/2000/svg" xmlns:xlink="http://www.w3.org/1999/xlink">
<g id="graph0" class="graph" transform="scale(1 1) rotate(0) translate(4 43.8)">
<title>git</title>
<!-- 4dbacf9bf066658cfcd024ac84e84fe00d39ccef -->
<g id="node1" class="node">
<title>4dbacf9bf066658cfcd024ac84e84fe00d39ccef</title>
<g id="a_node1"><a xlink:title="master&#10;origin/HEAD&#10;origin/master&#10;4dbacf9">
<ellipse fill="#b3cde3" stroke="#b3cde3" cx="5.4" cy="-19.4" rx="5.4" ry="5.4"/>
</a>
</g>
</g>
<!-- 11cc7df9b6f77e7f685e840243934c0e918d8c38 -->
<g id="node18" class="node">
<title>11cc7df9b6f77e7f685e840243934c0e918d8c38</title>
<ellipse fill="#000000" stroke="#000000" cx="52.2" cy="-19.4" rx="5.4" ry="5.4"/>
</g>
<!-- 4dbacf9bf066658cfcd024ac84e84fe00d39ccef&#45;&gt;11cc7df9b6f77e7f685e840243934c0e918d8c38 -->
<g id="edge28" class="edge">
<title>4dbacf9bf066658cfcd024ac84e84fe00d39ccef&#45;&gt;11cc7df9b6f77e7f685e840243934c0e918d8c38</title>
<path fill="none" stroke="#000000" d="M11.1386,-19.4C18.7288,-19.4 32.246,-19.4 41.6907,-19.4"/>
<polygon fill="#000000" stroke="#000000" points="41.7054,-21.1501 46.7053,-19.4 41.7053,-17.6501 41.7054,-21.1501"/>
</g>
<!-- 3f3604162d8b68a2a142b7a9408d26c03ec2ad2d -->
<g id="node2" class="node">
<title>3f3604162d8b68a2a142b7a9408d26c03ec2ad2d</title>
<ellipse fill="#000000" stroke="#000000" cx="1128.6" cy="-19.4" rx="5.4" ry="5.4"/>
</g>
<!-- f946c951652bed19d19b3cfac6566c589b768bcd -->
<g id="node30" class="node">
<title>f946c951652bed19d19b3cfac6566c589b768bcd</title>
<ellipse fill="#000000" stroke="#000000" cx="1175.4" cy="-19.4" rx="5.4" ry="5.4"/>
</g>
<!-- 3f3604162d8b68a2a142b7a9408d26c03ec2ad2d&#45;&gt;f946c951652bed19d19b3cfac6566c589b768bcd -->
<g id="edge1" class="edge">
<title>3f3604162d8b68a2a142b7a9408d26c03ec2ad2d&#45;&gt;f946c951652bed19d19b3cfac6566c589b768bcd</title>
<path fill="none" stroke="#000000" d="M1134.3386,-19.4C1141.9288,-19.4 1155.446,-19.4 1164.8907,-19.4"/>
<polygon fill="#000000" stroke="#000000" points="1164.9054,-21.1501 1169.9053,-19.4 1164.9053,-17.6501 1164.9054,-21.1501"/>
</g>
<!-- 7b15490203e12f60127d2f0836d9a61a90f27f36 -->
<g id="node3" class="node">
<title>7b15490203e12f60127d2f0836d9a61a90f27f36</title>
<ellipse fill="#000000" stroke="#000000" cx="847.8" cy="-19.4" rx="5.4" ry="5.4"/>
</g>
<!-- 1bee75ea1292fa7fd236f64a92bc056be9fd3065 -->
<g id="node10" class="node">
<title>1bee75ea1292fa7fd236f64a92bc056be9fd3065</title>
<ellipse fill="#000000" stroke="#000000" cx="894.6" cy="-19.4" rx="5.4" ry="5.4"/>
</g>
<!-- 7b15490203e12f60127d2f0836d9a61a90f27f36&#45;&gt;1bee75ea1292fa7fd236f64a92bc056be9fd3065 -->
<g id="edge2" class="edge">
<title>7b15490203e12f60127d2f0836d9a61a90f27f36&#45;&gt;1bee75ea1292fa7fd236f64a92bc056be9fd3065</title>
<path fill="none" stroke="#000000" d="M853.5386,-19.4C861.1288,-19.4 874.646,-19.4 884.0907,-19.4"/>
<polygon fill="#000000" stroke="#000000" points="884.1054,-21.1501 889.1053,-19.4 884.1053,-17.6501 884.1054,-21.1501"/>
</g>
<!-- 4c2edcef00d4d9a3857c1230732a0994b03e35bf -->
<g id="node4" class="node">
<title>4c2edcef00d4d9a3857c1230732a0994b03e35bf</title>
<ellipse fill="#000000" stroke="#000000" cx="1362.6" cy="-19.4" rx="5.4" ry="5.4"/>
</g>
<!-- d667d69743fd3c72fe2c988f3a86eff3a72fab75 -->
<g id="node25" class="node">
<title>d667d69743fd3c72fe2c988f3a86eff3a72fab75</title>
<ellipse fill="#000000" stroke="#000000" cx="1409.4" cy="-19.4" rx="5.4" ry="5.4"/>
</g>
<!-- 4c2edcef00d4d9a3857c1230732a0994b03e35bf&#45;&gt;d667d69743fd3c72fe2c988f3a86eff3a72fab75 -->
<g id="edge3" class="edge">
<title>4c2edcef00d4d9a3857c1230732a0994b03e35bf&#45;&gt;d667d69743fd3c72fe2c988f3a86eff3a72fab75</title>
<path fill="none" stroke="#000000" d="M1368.3386,-19.4C1375.9288,-19.4 1389.446,-19.4 1398.8907,-19.4"/>
<polygon fill="#000000" stroke="#000000" points="1398.9054,-21.1501 1403.9053,-19.4 1398.9053,-17.6501 1398.9054,-21.1501"/>
</g>
<!-- ab435466b3b503b64ba135837d62c99c756dd56a -->
<g id="node5" class="node">
<title>ab435466b3b503b64ba135837d62c99c756dd56a</title>
<ellipse fill="#000000" stroke="#000000" cx="660.6" cy="-19.4" rx="5.4" ry="5.4"/>
</g>
<!-- b41a366b26d6089a619d1a9ba41e10d840099697 -->
<g id="node35" class="node">
<title>b41a366b26d6089a619d1a9ba41e10d840099697</title>
<ellipse fill="#000000" stroke="#000000" cx="707.4" cy="-19.4" rx="5.4" ry="5.4"/>
</g>
<!-- ab435466b3b503b64ba135837d62c99c756dd56a&#45;&gt;b41a366b26d6089a619d1a9ba41e10d840099697 -->
<g id="edge4" class="edge">
<title>ab435466b3b503b64ba135837d62c99c756dd56a&#45;&gt;b41a366b26d6089a619d1a9ba41e10d840099697</title>
<path fill="none" stroke="#000000" d="M666.3386,-19.4C673.9288,-19.4 687.446,-19.4 696.8907,-19.4"/>
<polygon fill="#000000" stroke="#000000" points="696.9054,-21.1501 701.9053,-19.4 696.9053,-17.6501 696.9054,-21.1501"/>
</g>
<!-- 6f059ee98b00875e2fe2bb9070dbf99b02890cc5 -->
<g id="node6" class="node">
<title>6f059ee98b00875e2fe2bb9070dbf99b02890cc5</title>
<ellipse fill="#000000" stroke="#000000" cx="379.8" cy="-19.4" rx="5.4" ry="5.4"/>
</g>
<!-- 2d66bf96f18b2adb3795558a6f0fddf04e8a6283 -->
<g id="node16" class="node">
<title>2d66bf96f18b2adb3795558a6f0fddf04e8a6283</title>
<ellipse fill="#000000" stroke="#000000" cx="426.6" cy="-19.4" rx="5.4" ry="5.4"/>
</g>
<!-- 6f059ee98b00875e2fe2bb9070dbf99b02890cc5&#45;&gt;2d66bf96f18b2adb3795558a6f0fddf04e8a6283 -->
<g id="edge5" class="edge">
<title>6f059ee98b00875e2fe2bb9070dbf99b02890cc5&#45;&gt;2d66bf96f18b2adb3795558a6f0fddf04e8a6283</title>
<path fill="none" stroke="#000000" d="M385.5386,-19.4C393.1288,-19.4 406.646,-19.4 416.0907,-19.4"/>
<polygon fill="#000000" stroke="#000000" points="416.1054,-21.1501 421.1053,-19.4 416.1053,-17.6501 416.1054,-21.1501"/>
</g>
<!-- 170851eba936407c28eb27736db4d9782d999871 -->
<g id="node7" class="node">
<title>170851eba936407c28eb27736db4d9782d999871</title>
<ellipse fill="#000000" stroke="#000000" cx="520.2" cy="-19.4" rx="5.4" ry="5.4"/>
</g>
<!-- a11e7a0d0d3c94e30b2331e746adb262134dd6b9 -->
<g id="node21" class="node">
<title>a11e7a0d0d3c94e30b2331e746adb262134dd6b9</title>
<ellipse fill="#000000" stroke="#000000" cx="567" cy="-19.4" rx="5.4" ry="5.4"/>
</g>
<!-- 170851eba936407c28eb27736db4d9782d999871&#45;&gt;a11e7a0d0d3c94e30b2331e746adb262134dd6b9 -->
<g id="edge6" class="edge">
<title>170851eba936407c28eb27736db4d9782d999871&#45;&gt;a11e7a0d0d3c94e30b2331e746adb262134dd6b9</title>
<path fill="none" stroke="#000000" d="M525.9386,-19.4C533.5288,-19.4 547.046,-19.4 556.4907,-19.4"/>
<polygon fill="#000000" stroke="#000000" points="556.5054,-21.1501 561.5053,-19.4 556.5053,-17.6501 556.5054,-21.1501"/>
</g>
<!-- 6378a64d992801ba240c267dd4d27b833596e4a0 -->
<g id="node8" class="node">
<title>6378a64d992801ba240c267dd4d27b833596e4a0</title>
<ellipse fill="#000000" stroke="#000000" cx="801" cy="-19.4" rx="5.4" ry="5.4"/>
</g>
<!-- 6378a64d992801ba240c267dd4d27b833596e4a0&#45;&gt;7b15490203e12f60127d2f0836d9a61a90f27f36 -->
<g id="edge7" class="edge">
<title>6378a64d992801ba240c267dd4d27b833596e4a0&#45;&gt;7b15490203e12f60127d2f0836d9a61a90f27f36</title>
<path fill="none" stroke="#000000" d="M806.7386,-19.4C814.3288,-19.4 827.846,-19.4 837.2907,-19.4"/>
<polygon fill="#000000" stroke="#000000" points="837.3054,-21.1501 842.3053,-19.4 837.3053,-17.6501 837.3054,-21.1501"/>
</g>
<!-- 2a2abff61099f372acb890e30610cc3d3d9c2fb2 -->
<g id="node9" class="node">
<title>2a2abff61099f372acb890e30610cc3d3d9c2fb2</title>
<ellipse fill="#000000" stroke="#000000" cx="1269" cy="-19.4" rx="5.4" ry="5.4"/>
</g>
<!-- 9568eca5b01e96a0a5986f0d0adb881678e6e0bf -->
<g id="node34" class="node">
<title>9568eca5b01e96a0a5986f0d0adb881678e6e0bf</title>
<ellipse fill="#000000" stroke="#000000" cx="1315.8" cy="-19.4" rx="5.4" ry="5.4"/>
</g>
<!-- 2a2abff61099f372acb890e30610cc3d3d9c2fb2&#45;&gt;9568eca5b01e96a0a5986f0d0adb881678e6e0bf -->
<g id="edge8" class="edge">
<title>2a2abff61099f372acb890e30610cc3d3d9c2fb2&#45;&gt;9568eca5b01e96a0a5986f0d0adb881678e6e0bf</title>
<path fill="none" stroke="#000000" d="M1274.7386,-19.4C1282.3288,-19.4 1295.846,-19.4 1305.2907,-19.4"/>
<polygon fill="#000000" stroke="#000000" points="1305.3054,-21.1501 1310.3053,-19.4 1305.3053,-17.6501 1305.3054,-21.1501"/>
</g>
<!-- 971c18724f937082db6ffc5f6b08184e294c11bb -->
<g id="node11" class="node">
<title>971c18724f937082db6ffc5f6b08184e294c11bb</title>
<ellipse fill="#000000" stroke="#000000" cx="941.4" cy="-19.4" rx="5.4" ry="5.4"/>
</g>
<!-- 1bee75ea1292fa7fd236f64a92bc056be9fd3065&#45;&gt;971c18724f937082db6ffc5f6b08184e294c11bb -->
<g id="edge9" class="edge">
<title>1bee75ea1292fa7fd236f64a92bc056be9fd3065&#45;&gt;971c18724f937082db6ffc5f6b08184e294c11bb</title>
<path fill="none" stroke="#000000" d="M900.3386,-19.4C907.9288,-19.4 921.446,-19.4 930.8907,-19.4"/>
<polygon fill="#000000" stroke="#000000" points="930.9054,-21.1501 935.9053,-19.4 930.9053,-17.6501 930.9054,-21.1501"/>
</g>
<!-- 28fdacdad9d8cbb58d76d21d5ea07b2053e3b185 -->
<g id="node15" class="node">
<title>28fdacdad9d8cbb58d76d21d5ea07b2053e3b185</title>
<ellipse fill="#000000" stroke="#000000" cx="988.2" cy="-19.4" rx="5.4" ry="5.4"/>
</g>
<!-- 971c18724f937082db6ffc5f6b08184e294c11bb&#45;&gt;28fdacdad9d8cbb58d76d21d5ea07b2053e3b185 -->
<g id="edge10" class="edge">
<title>971c18724f937082db6ffc5f6b08184e294c11bb&#45;&gt;28fdacdad9d8cbb58d76d21d5ea07b2053e3b185</title>
<path fill="none" stroke="#000000" d="M947.1386,-19.4C954.7288,-19.4 968.246,-19.4 977.6907,-19.4"/>
<polygon fill="#000000" stroke="#000000" points="977.7054,-21.1501 982.7053,-19.4 977.7053,-17.6501 977.7054,-21.1501"/>
</g>
<!-- 5bfb18b7dbaf3eabdabb0eeb460461b50e772a7f -->
<g id="node12" class="node">
<title>5bfb18b7dbaf3eabdabb0eeb460461b50e772a7f</title>
<ellipse fill="#000000" stroke="#000000" cx="99" cy="-19.4" rx="5.4" ry="5.4"/>
</g>
<!-- 6864bef05bd846b39b545d4fd6dc5a1bf357f4cc -->
<g id="node22" class="node">
<title>6864bef05bd846b39b545d4fd6dc5a1bf357f4cc</title>
<ellipse fill="#000000" stroke="#000000" cx="145.8" cy="-34.4" rx="5.4" ry="5.4"/>
</g>
<!-- 5bfb18b7dbaf3eabdabb0eeb460461b50e772a7f&#45;&gt;6864bef05bd846b39b545d4fd6dc5a1bf357f4cc -->
<g id="edge12" class="edge">
<title>5bfb18b7dbaf3eabdabb0eeb460461b50e772a7f&#45;&gt;6864bef05bd846b39b545d4fd6dc5a1bf357f4cc</title>
<path fill="none" stroke="#000000" d="M104.3686,-21.1207C111.9856,-23.562 126.0703,-28.0764 135.6831,-31.1574"/>
<polygon fill="#000000" stroke="#000000" points="135.1985,-32.8397 140.4941,-32.6994 136.2668,-29.5067 135.1985,-32.8397"/>
</g>
<!-- 4775246ac0d14e8b6e8700a848b72190747b1622 -->
<g id="node29" class="node">
<title>4775246ac0d14e8b6e8700a848b72190747b1622</title>
<ellipse fill="#000000" stroke="#000000" cx="145.8" cy="-5.4" rx="5.4" ry="5.4"/>
</g>
<!-- 5bfb18b7dbaf3eabdabb0eeb460461b50e772a7f&#45;&gt;4775246ac0d14e8b6e8700a848b72190747b1622 -->
<g id="edge11" class="edge">
<title>5bfb18b7dbaf3eabdabb0eeb460461b50e772a7f&#45;&gt;4775246ac0d14e8b6e8700a848b72190747b1622</title>
<path fill="none" stroke="#000000" d="M104.3686,-17.794C111.9856,-15.5154 126.0703,-11.302 135.6831,-8.4264"/>
<polygon fill="#000000" stroke="#000000" points="136.2054,-10.0969 140.4941,-6.9872 135.2022,-6.7437 136.2054,-10.0969"/>
</g>
<!-- 5fb54e39c9e1dc5c8d5c4097bc4de7f62d9945f6 -->
<g id="node13" class="node">
<title>5fb54e39c9e1dc5c8d5c4097bc4de7f62d9945f6</title>
<ellipse fill="#000000" stroke="#000000" cx="473.4" cy="-19.4" rx="5.4" ry="5.4"/>
</g>
<!-- 5fb54e39c9e1dc5c8d5c4097bc4de7f62d9945f6&#45;&gt;170851eba936407c28eb27736db4d9782d999871 -->
<g id="edge13" class="edge">
<title>5fb54e39c9e1dc5c8d5c4097bc4de7f62d9945f6&#45;&gt;170851eba936407c28eb27736db4d9782d999871</title>
<path fill="none" stroke="#000000" d="M479.1386,-19.4C486.7288,-19.4 500.246,-19.4 509.6907,-19.4"/>
<polygon fill="#000000" stroke="#000000" points="509.7054,-21.1501 514.7053,-19.4 509.7053,-17.6501 509.7054,-21.1501"/>
</g>
<!-- e205525b78973bc07d0921620036860517ae5b71 -->
<g id="node14" class="node">
<title>e205525b78973bc07d0921620036860517ae5b71</title>
<ellipse fill="#000000" stroke="#000000" cx="1035" cy="-19.4" rx="5.4" ry="5.4"/>
</g>
<!-- fe06b0a992eb8850bd269bb97199ecd14985d167 -->
<g id="node28" class="node">
<title>fe06b0a992eb8850bd269bb97199ecd14985d167</title>
<ellipse fill="#000000" stroke="#000000" cx="1081.8" cy="-19.4" rx="5.4" ry="5.4"/>
</g>
<!-- e205525b78973bc07d0921620036860517ae5b71&#45;&gt;fe06b0a992eb8850bd269bb97199ecd14985d167 -->
<g id="edge14" class="edge">
<title>e205525b78973bc07d0921620036860517ae5b71&#45;&gt;fe06b0a992eb8850bd269bb97199ecd14985d167</title>
<path fill="none" stroke="#000000" d="M1040.7386,-19.4C1048.3288,-19.4 1061.846,-19.4 1071.2907,-19.4"/>
<polygon fill="#000000" stroke="#000000" points="1071.3054,-21.1501 1076.3053,-19.4 1071.3053,-17.6501 1071.3054,-21.1501"/>
</g>
<!-- 28fdacdad9d8cbb58d76d21d5ea07b2053e3b185&#45;&gt;e205525b78973bc07d0921620036860517ae5b71 -->
<g id="edge15" class="edge">
<title>28fdacdad9d8cbb58d76d21d5ea07b2053e3b185&#45;&gt;e205525b78973bc07d0921620036860517ae5b71</title>
<path fill="none" stroke="#000000" d="M993.9386,-19.4C1001.5288,-19.4 1015.046,-19.4 1024.4907,-19.4"/>
<polygon fill="#000000" stroke="#000000" points="1024.5054,-21.1501 1029.5053,-19.4 1024.5053,-17.6501 1024.5054,-21.1501"/>
</g>
<!-- 2d66bf96f18b2adb3795558a6f0fddf04e8a6283&#45;&gt;5fb54e39c9e1dc5c8d5c4097bc4de7f62d9945f6 -->
<g id="edge16" class="edge">
<title>2d66bf96f18b2adb3795558a6f0fddf04e8a6283&#45;&gt;5fb54e39c9e1dc5c8d5c4097bc4de7f62d9945f6</title>
<path fill="none" stroke="#000000" d="M432.3386,-19.4C439.9288,-19.4 453.446,-19.4 462.8907,-19.4"/>
<polygon fill="#000000" stroke="#000000" points="462.9054,-21.1501 467.9053,-19.4 462.9053,-17.6501 462.9054,-21.1501"/>
</g>
<!-- f301de83f192cc7362de98ae466b327cc035b710 -->
<g id="node17" class="node">
<title>f301de83f192cc7362de98ae466b327cc035b710</title>
<ellipse fill="#000000" stroke="#000000" cx="754.2" cy="-19.4" rx="5.4" ry="5.4"/>
</g>
<!-- f301de83f192cc7362de98ae466b327cc035b710&#45;&gt;6378a64d992801ba240c267dd4d27b833596e4a0 -->
<g id="edge17" class="edge">
<title>f301de83f192cc7362de98ae466b327cc035b710&#45;&gt;6378a64d992801ba240c267dd4d27b833596e4a0</title>
<path fill="none" stroke="#000000" d="M759.9386,-19.4C767.5288,-19.4 781.046,-19.4 790.4907,-19.4"/>
<polygon fill="#000000" stroke="#000000" points="790.5054,-21.1501 795.5053,-19.4 790.5053,-17.6501 790.5054,-21.1501"/>
</g>
<!-- 11cc7df9b6f77e7f685e840243934c0e918d8c38&#45;&gt;5bfb18b7dbaf3eabdabb0eeb460461b50e772a7f -->
<g id="edge18" class="edge">
<title>11cc7df9b6f77e7f685e840243934c0e918d8c38&#45;&gt;5bfb18b7dbaf3eabdabb0eeb460461b50e772a7f</title>
<path fill="none" stroke="#000000" d="M57.9386,-19.4C65.5288,-19.4 79.046,-19.4 88.4907,-19.4"/>
<polygon fill="#000000" stroke="#000000" points="88.5054,-21.1501 93.5053,-19.4 88.5053,-17.6501 88.5054,-21.1501"/>
</g>
<!-- f5c96ef47f639cd83eeb66ba7910ad661f82b372 -->
<g id="node19" class="node">
<title>f5c96ef47f639cd83eeb66ba7910ad661f82b372</title>
<ellipse fill="#000000" stroke="#000000" cx="1456.2" cy="-19.4" rx="5.4" ry="5.4"/>
</g>
<!-- a563097e5e91c3b5c32d086ec34aa326b213d3d8 -->
<g id="node27" class="node">
<title>a563097e5e91c3b5c32d086ec34aa326b213d3d8</title>
<ellipse fill="#000000" stroke="#000000" cx="1503" cy="-19.4" rx="5.4" ry="5.4"/>
</g>
<!-- f5c96ef47f639cd83eeb66ba7910ad661f82b372&#45;&gt;a563097e5e91c3b5c32d086ec34aa326b213d3d8 -->
<g id="edge19" class="edge">
<title>f5c96ef47f639cd83eeb66ba7910ad661f82b372&#45;&gt;a563097e5e91c3b5c32d086ec34aa326b213d3d8</title>
<path fill="none" stroke="#000000" d="M1461.9386,-19.4C1469.5288,-19.4 1483.046,-19.4 1492.4907,-19.4"/>
<polygon fill="#000000" stroke="#000000" points="1492.5054,-21.1501 1497.5053,-19.4 1492.5053,-17.6501 1492.5054,-21.1501"/>
</g>
<!-- 372d6e53cbe2075fe52a4dd86fa3847707600356 -->
<g id="node20" class="node">
<title>372d6e53cbe2075fe52a4dd86fa3847707600356</title>
<ellipse fill="#000000" stroke="#000000" cx="613.8" cy="-19.4" rx="5.4" ry="5.4"/>
</g>
<!-- 372d6e53cbe2075fe52a4dd86fa3847707600356&#45;&gt;ab435466b3b503b64ba135837d62c99c756dd56a -->
<g id="edge20" class="edge">
<title>372d6e53cbe2075fe52a4dd86fa3847707600356&#45;&gt;ab435466b3b503b64ba135837d62c99c756dd56a</title>
<path fill="none" stroke="#000000" d="M619.5386,-19.4C627.1288,-19.4 640.646,-19.4 650.0907,-19.4"/>
<polygon fill="#000000" stroke="#000000" points="650.1054,-21.1501 655.1053,-19.4 650.1053,-17.6501 650.1054,-21.1501"/>
</g>
<!-- a11e7a0d0d3c94e30b2331e746adb262134dd6b9&#45;&gt;372d6e53cbe2075fe52a4dd86fa3847707600356 -->
<g id="edge21" class="edge">
<title>a11e7a0d0d3c94e30b2331e746adb262134dd6b9&#45;&gt;372d6e53cbe2075fe52a4dd86fa3847707600356</title>
<path fill="none" stroke="#000000" d="M572.7386,-19.4C580.3288,-19.4 593.846,-19.4 603.2907,-19.4"/>
<polygon fill="#000000" stroke="#000000" points="603.3054,-21.1501 608.3053,-19.4 603.3053,-17.6501 603.3054,-21.1501"/>
</g>
<!-- 0334f1c216667bae67b41bf22b97caaeff3b2c58 -->
<g id="node33" class="node">
<title>0334f1c216667bae67b41bf22b97caaeff3b2c58</title>
<ellipse fill="#000000" stroke="#000000" cx="192.6" cy="-19.4" rx="5.4" ry="5.4"/>
</g>
<!-- 6864bef05bd846b39b545d4fd6dc5a1bf357f4cc&#45;&gt;0334f1c216667bae67b41bf22b97caaeff3b2c58 -->
<g id="edge22" class="edge">
<title>6864bef05bd846b39b545d4fd6dc5a1bf357f4cc&#45;&gt;0334f1c216667bae67b41bf22b97caaeff3b2c58</title>
<path fill="none" stroke="#000000" d="M151.1686,-32.6793C158.7856,-30.238 172.8703,-25.7236 182.4831,-22.6426"/>
<polygon fill="#000000" stroke="#000000" points="183.0668,-24.2933 187.2941,-21.1006 181.9985,-20.9603 183.0668,-24.2933"/>
</g>
<!-- 0065dea78c9b22c4781b8a37a26c88098d1887e4 -->
<g id="node23" class="node">
<title>0065dea78c9b22c4781b8a37a26c88098d1887e4</title>
<ellipse fill="#000000" stroke="#000000" cx="239.4" cy="-19.4" rx="5.4" ry="5.4"/>
</g>
<!-- 0d880c5b5d7812caa0a98aabde66ebb53248bfa9 -->
<g id="node32" class="node">
<title>0d880c5b5d7812caa0a98aabde66ebb53248bfa9</title>
<ellipse fill="#000000" stroke="#000000" cx="286.2" cy="-19.4" rx="5.4" ry="5.4"/>
</g>
<!-- 0065dea78c9b22c4781b8a37a26c88098d1887e4&#45;&gt;0d880c5b5d7812caa0a98aabde66ebb53248bfa9 -->
<g id="edge23" class="edge">
<title>0065dea78c9b22c4781b8a37a26c88098d1887e4&#45;&gt;0d880c5b5d7812caa0a98aabde66ebb53248bfa9</title>
<path fill="none" stroke="#000000" d="M245.1386,-19.4C252.7288,-19.4 266.246,-19.4 275.6907,-19.4"/>
<polygon fill="#000000" stroke="#000000" points="275.7054,-21.1501 280.7053,-19.4 275.7053,-17.6501 275.7054,-21.1501"/>
</g>
<!-- f27eea8ae73ac8ab13f9d60401b5192c60a97539 -->
<g id="node24" class="node">
<title>f27eea8ae73ac8ab13f9d60401b5192c60a97539</title>
<ellipse fill="#000000" stroke="#000000" cx="1549.8" cy="-19.4" rx="5.4" ry="5.4"/>
</g>
<!-- d667d69743fd3c72fe2c988f3a86eff3a72fab75&#45;&gt;f5c96ef47f639cd83eeb66ba7910ad661f82b372 -->
<g id="edge24" class="edge">
<title>d667d69743fd3c72fe2c988f3a86eff3a72fab75&#45;&gt;f5c96ef47f639cd83eeb66ba7910ad661f82b372</title>
<path fill="none" stroke="#000000" d="M1415.1386,-19.4C1422.7288,-19.4 1436.246,-19.4 1445.6907,-19.4"/>
<polygon fill="#000000" stroke="#000000" points="1445.7054,-21.1501 1450.7053,-19.4 1445.7053,-17.6501 1445.7054,-21.1501"/>
</g>
<!-- 95bf36dcafabfe9d14ee878e14c7329cc5e51b61 -->
<g id="node26" class="node">
<title>95bf36dcafabfe9d14ee878e14c7329cc5e51b61</title>
<ellipse fill="#000000" stroke="#000000" cx="1222.2" cy="-19.4" rx="5.4" ry="5.4"/>
</g>
<!-- 95bf36dcafabfe9d14ee878e14c7329cc5e51b61&#45;&gt;2a2abff61099f372acb890e30610cc3d3d9c2fb2 -->
<g id="edge25" class="edge">
<title>95bf36dcafabfe9d14ee878e14c7329cc5e51b61&#45;&gt;2a2abff61099f372acb890e30610cc3d3d9c2fb2</title>
<path fill="none" stroke="#000000" d="M1227.9386,-19.4C1235.5288,-19.4 1249.046,-19.4 1258.4907,-19.4"/>
<polygon fill="#000000" stroke="#000000" points="1258.5054,-21.1501 1263.5053,-19.4 1258.5053,-17.6501 1258.5054,-21.1501"/>
</g>
<!-- a563097e5e91c3b5c32d086ec34aa326b213d3d8&#45;&gt;f27eea8ae73ac8ab13f9d60401b5192c60a97539 -->
<g id="edge26" class="edge">
<title>a563097e5e91c3b5c32d086ec34aa326b213d3d8&#45;&gt;f27eea8ae73ac8ab13f9d60401b5192c60a97539</title>
<path fill="none" stroke="#000000" d="M1508.7386,-19.4C1516.3288,-19.4 1529.846,-19.4 1539.2907,-19.4"/>
<polygon fill="#000000" stroke="#000000" points="1539.3054,-21.1501 1544.3053,-19.4 1539.3053,-17.6501 1539.3054,-21.1501"/>
</g>
<!-- fe06b0a992eb8850bd269bb97199ecd14985d167&#45;&gt;3f3604162d8b68a2a142b7a9408d26c03ec2ad2d -->
<g id="edge27" class="edge">
<title>fe06b0a992eb8850bd269bb97199ecd14985d167&#45;&gt;3f3604162d8b68a2a142b7a9408d26c03ec2ad2d</title>
<path fill="none" stroke="#000000" d="M1087.5386,-19.4C1095.1288,-19.4 1108.646,-19.4 1118.0907,-19.4"/>
<polygon fill="#000000" stroke="#000000" points="1118.1054,-21.1501 1123.1053,-19.4 1118.1053,-17.6501 1118.1054,-21.1501"/>
</g>
<!-- 4775246ac0d14e8b6e8700a848b72190747b1622&#45;&gt;0334f1c216667bae67b41bf22b97caaeff3b2c58 -->
<g id="edge29" class="edge">
<title>4775246ac0d14e8b6e8700a848b72190747b1622&#45;&gt;0334f1c216667bae67b41bf22b97caaeff3b2c58</title>
<path fill="none" stroke="#000000" d="M151.1686,-7.006C158.7856,-9.2846 172.8703,-13.498 182.4831,-16.3736"/>
<polygon fill="#000000" stroke="#000000" points="182.0022,-18.0563 187.2941,-17.8128 183.0054,-14.7031 182.0022,-18.0563"/>
</g>
<!-- f946c951652bed19d19b3cfac6566c589b768bcd&#45;&gt;95bf36dcafabfe9d14ee878e14c7329cc5e51b61 -->
<g id="edge30" class="edge">
<title>f946c951652bed19d19b3cfac6566c589b768bcd&#45;&gt;95bf36dcafabfe9d14ee878e14c7329cc5e51b61</title>
<path fill="none" stroke="#000000" d="M1181.1386,-19.4C1188.7288,-19.4 1202.246,-19.4 1211.6907,-19.4"/>
<polygon fill="#000000" stroke="#000000" points="1211.7054,-21.1501 1216.7053,-19.4 1211.7053,-17.6501 1211.7054,-21.1501"/>
</g>
<!-- 7d3e983fbfc4d10618f642187d3b4b99bbbdf88e -->
<g id="node31" class="node">
<title>7d3e983fbfc4d10618f642187d3b4b99bbbdf88e</title>
<ellipse fill="#000000" stroke="#000000" cx="333" cy="-19.4" rx="5.4" ry="5.4"/>
</g>
<!-- 7d3e983fbfc4d10618f642187d3b4b99bbbdf88e&#45;&gt;6f059ee98b00875e2fe2bb9070dbf99b02890cc5 -->
<g id="edge31" class="edge">
<title>7d3e983fbfc4d10618f642187d3b4b99bbbdf88e&#45;&gt;6f059ee98b00875e2fe2bb9070dbf99b02890cc5</title>
<path fill="none" stroke="#000000" d="M338.7386,-19.4C346.3288,-19.4 359.846,-19.4 369.2907,-19.4"/>
<polygon fill="#000000" stroke="#000000" points="369.3054,-21.1501 374.3053,-19.4 369.3053,-17.6501 369.3054,-21.1501"/>
</g>
<!-- 0d880c5b5d7812caa0a98aabde66ebb53248bfa9&#45;&gt;7d3e983fbfc4d10618f642187d3b4b99bbbdf88e -->
<g id="edge32" class="edge">
<title>0d880c5b5d7812caa0a98aabde66ebb53248bfa9&#45;&gt;7d3e983fbfc4d10618f642187d3b4b99bbbdf88e</title>
<path fill="none" stroke="#000000" d="M291.9386,-19.4C299.5288,-19.4 313.046,-19.4 322.4907,-19.4"/>
<polygon fill="#000000" stroke="#000000" points="322.5054,-21.1501 327.5053,-19.4 322.5053,-17.6501 322.5054,-21.1501"/>
</g>
<!-- 0334f1c216667bae67b41bf22b97caaeff3b2c58&#45;&gt;0065dea78c9b22c4781b8a37a26c88098d1887e4 -->
<g id="edge33" class="edge">
<title>0334f1c216667bae67b41bf22b97caaeff3b2c58&#45;&gt;0065dea78c9b22c4781b8a37a26c88098d1887e4</title>
<path fill="none" stroke="#000000" d="M198.3386,-19.4C205.9288,-19.4 219.446,-19.4 228.8907,-19.4"/>
<polygon fill="#000000" stroke="#000000" points="228.9054,-21.1501 233.9053,-19.4 228.9053,-17.6501 228.9054,-21.1501"/>
</g>
<!-- 9568eca5b01e96a0a5986f0d0adb881678e6e0bf&#45;&gt;4c2edcef00d4d9a3857c1230732a0994b03e35bf -->
<g id="edge34" class="edge">
<title>9568eca5b01e96a0a5986f0d0adb881678e6e0bf&#45;&gt;4c2edcef00d4d9a3857c1230732a0994b03e35bf</title>
<path fill="none" stroke="#000000" d="M1321.5386,-19.4C1329.1288,-19.4 1342.646,-19.4 1352.0907,-19.4"/>
<polygon fill="#000000" stroke="#000000" points="1352.1054,-21.1501 1357.1053,-19.4 1352.1053,-17.6501 1352.1054,-21.1501"/>
</g>
<!-- b41a366b26d6089a619d1a9ba41e10d840099697&#45;&gt;f301de83f192cc7362de98ae466b327cc035b710 -->
<g id="edge35" class="edge">
<title>b41a366b26d6089a619d1a9ba41e10d840099697&#45;&gt;f301de83f192cc7362de98ae466b327cc035b710</title>
<path fill="none" stroke="#000000" d="M713.1386,-19.4C720.7288,-19.4 734.246,-19.4 743.6907,-19.4"/>
<polygon fill="#000000" stroke="#000000" points="743.7054,-21.1501 748.7053,-19.4 743.7053,-17.6501 743.7054,-21.1501"/>
</g>
</g>
</svg>
